<svg width="907" height="997" viewBox="0 0 907 997" fill="none" xmlns="http://www.w3.org/2000/svg">
<circle cx="17.5" cy="17.5" r="17.5" fill="#EA384D"/>
<circle cx="17.5" cy="91.5" r="17.5" fill="#EA384D"/>
<circle cx="17.5" cy="165.5" r="17.5" fill="#EA384D"/>
<circle cx="17.5" cy="239.5" r="17.5" fill="#EA384D"/>
<circle cx="17.5" cy="313.5" r="17.5" fill="#EA384D"/>
<circle cx="17.5" cy="387.5" r="17.5" fill="#EA384D"/>
<circle cx="17.5" cy="461.5" r="17.5" fill="#EA384D"/>
<circle cx="17.5" cy="535.5" r="17.5" fill="#EA384D"/>
<circle cx="17.5" cy="609.5" r="17.5" fill="#EA384D"/>
<circle cx="17.5" cy="683.5" r="17.5" fill="#EA384D"/>
<circle cx="17.5" cy="757.5" r="17.5" fill="#EA384D"/>
<circle cx="17.5" cy="831.5" r="17.5" fill="#EA384D"/>
<circle cx="17.5" cy="905.5" r="17.5" fill="#EA384D"/>
<circle cx="17.5" cy="979.5" r="17.5" fill="#EA384D"/>
<circle cx="126.5" cy="17.5" r="17.5" fill="#EA384D"/>
<circle cx="126.5" cy="91.5" r="17.5" fill="#EA384D"/>
<circle cx="126.5" cy="165.5" r="17.5" fill="#EA384D"/>
<circle cx="126.5" cy="239.5" r="17.5" fill="#EA384D"/>
<circle cx="126.5" cy="313.5" r="17.5" fill="#EA384D"/>
<circle cx="126.5" cy="387.5" r="17.5" fill="#EA384D"/>
<circle cx="126.5" cy="461.5" r="17.5" fill="#EA384D"/>
<circle cx="126.5" cy="535.5" r="17.5" fill="#EA384D"/>
<circle cx="126.5" cy="609.5" r="17.5" fill="#EA384D"/>
<circle cx="126.5" cy="683.5" r="17.5" fill="#EA384D"/>
<circle cx="126.5" cy="757.5" r="17.5" fill="#EA384D"/>
<circle cx="126.5" cy="831.5" r="17.5" fill="#EA384D"/>
<circle cx="126.5" cy="905.5" r="17.5" fill="#EA384D"/>
<circle cx="126.5" cy="979.5" r="17.5" fill="#EA384D"/>
<circle cx="235.5" cy="17.5" r="17.5" fill="#EA384D"/>
<circle cx="235.5" cy="91.5" r="17.5" fill="#EA384D"/>
<circle cx="235.5" cy="165.5" r="17.5" fill="#EA384D"/>
<circle cx="235.5" cy="239.5" r="17.5" fill="#EA384D"/>
<circle cx="235.5" cy="313.5" r="17.5" fill="#EA384D"/>
<circle cx="235.5" cy="387.5" r="17.5" fill="#EA384D"/>
<circle cx="235.5" cy="461.5" r="17.5" fill="#EA384D"/>
<circle cx="235.5" cy="535.5" r="17.5" fill="#EA384D"/>
<circle cx="235.5" cy="609.5" r="17.5" fill="#EA384D"/>
<circle cx="235.5" cy="683.5" r="17.5" fill="#EA384D"/>
<circle cx="235.5" cy="757.5" r="17.5" fill="#EA384D"/>
<circle cx="235.5" cy="831.5" r="17.5" fill="#EA384D"/>
<circle cx="235.5" cy="905.5" r="17.5" fill="#EA384D"/>
<circle cx="235.5" cy="979.5" r="17.5" fill="#EA384D"/>
<circle cx="344.5" cy="17.5" r="17.5" fill="#EA384D"/>
<circle cx="344.5" cy="91.5" r="17.5" fill="#EA384D"/>
<circle cx="344.5" cy="165.5" r="17.5" fill="#EA384D"/>
<circle cx="344.5" cy="239.5" r="17.5" fill="#EA384D"/>
<circle cx="344.5" cy="313.5" r="17.5" fill="#EA384D"/>
<circle cx="344.5" cy="387.5" r="17.5" fill="#EA384D"/>
<circle cx="344.5" cy="461.5" r="17.5" fill="#EA384D"/>
<circle cx="344.5" cy="535.5" r="17.5" fill="#EA384D"/>
<circle cx="344.5" cy="609.5" r="17.5" fill="#EA384D"/>
<circle cx="344.5" cy="683.5" r="17.5" fill="#EA384D"/>
<circle cx="344.5" cy="757.5" r="17.5" fill="#EA384D"/>
<circle cx="344.5" cy="831.5" r="17.5" fill="#EA384D"/>
<circle cx="344.5" cy="905.5" r="17.5" fill="#EA384D"/>
<circle cx="344.5" cy="979.5" r="17.5" fill="#EA384D"/>
<circle cx="453.5" cy="17.5" r="17.5" fill="#EA384D"/>
<circle cx="453.5" cy="91.5" r="17.5" fill="#EA384D"/>
<circle cx="453.5" cy="165.5" r="17.5" fill="#EA384D"/>
<circle cx="453.5" cy="239.5" r="17.5" fill="#EA384D"/>
<circle cx="453.5" cy="313.5" r="17.5" fill="#EA384D"/>
<circle cx="453.5" cy="387.5" r="17.5" fill="#EA384D"/>
<circle cx="453.5" cy="461.5" r="17.5" fill="#EA384D"/>
<circle cx="453.5" cy="535.5" r="17.5" fill="#EA384D"/>
<circle cx="453.5" cy="609.5" r="17.5" fill="#EA384D"/>
<circle cx="453.5" cy="683.5" r="17.5" fill="#EA384D"/>
<circle cx="453.5" cy="757.5" r="17.5" fill="#EA384D"/>
<circle cx="453.5" cy="831.5" r="17.5" fill="#EA384D"/>
<circle cx="453.5" cy="905.5" r="17.5" fill="#EA384D"/>
<circle cx="453.5" cy="979.5" r="17.5" fill="#EA384D"/>
<circle cx="562.5" cy="17.5" r="17.5" fill="#EA384D"/>
<circle cx="562.5" cy="91.5" r="17.5" fill="#EA384D"/>
<circle cx="562.5" cy="165.5" r="17.5" fill="#EA384D"/>
<circle cx="562.5" cy="239.5" r="17.5" fill="#EA384D"/>
<circle cx="562.5" cy="313.5" r="17.5" fill="#EA384D"/>
<circle cx="562.5" cy="387.5" r="17.5" fill="#EA384D"/>
<circle cx="562.5" cy="461.5" r="17.5" fill="#EA384D"/>
<circle cx="562.5" cy="535.5" r="17.5" fill="#EA384D"/>
<circle cx="562.5" cy="609.5" r="17.5" fill="#EA384D"/>
<circle cx="562.5" cy="683.5" r="17.5" fill="#EA384D"/>
<circle cx="562.5" cy="757.5" r="17.5" fill="#EA384D"/>
<circle cx="562.5" cy="831.5" r="17.5" fill="#EA384D"/>
<circle cx="562.5" cy="905.5" r="17.5" fill="#EA384D"/>
<circle cx="562.5" cy="979.5" r="17.5" fill="#EA384D"/>
<circle cx="671.5" cy="17.5" r="17.5" fill="#EA384D"/>
<circle cx="671.5" cy="91.5" r="17.5" fill="#EA384D"/>
<circle cx="671.5" cy="165.5" r="17.5" fill="#EA384D"/>
<circle cx="671.5" cy="239.5" r="17.5" fill="#EA384D"/>
<circle cx="671.5" cy="313.5" r="17.5" fill="#EA384D"/>
<circle cx="671.5" cy="387.5" r="17.5" fill="#EA384D"/>
<circle cx="671.5" cy="461.5" r="17.5" fill="#EA384D"/>
<circle cx="671.5" cy="535.5" r="17.5" fill="#EA384D"/>
<circle cx="671.5" cy="609.5" r="17.5" fill="#EA384D"/>
<circle cx="671.5" cy="683.5" r="17.5" fill="#EA384D"/>
<circle cx="671.5" cy="757.5" r="17.5" fill="#EA384D"/>
<circle cx="671.5" cy="831.5" r="17.5" fill="#EA384D"/>
<circle cx="671.5" cy="905.5" r="17.5" fill="#EA384D"/>
<circle cx="671.5" cy="979.5" r="17.5" fill="#EA384D"/>
<circle cx="780.5" cy="17.5" r="17.5" fill="#EA384D"/>
<circle cx="780.5" cy="91.5" r="17.5" fill="#EA384D"/>
<circle cx="780.5" cy="165.5" r="17.5" fill="#EA384D"/>
<circle cx="780.5" cy="239.5" r="17.5" fill="#EA384D"/>
<circle cx="780.5" cy="313.5" r="17.5" fill="#EA384D"/>
<circle cx="780.5" cy="387.5" r="17.5" fill="#EA384D"/>
<circle cx="780.5" cy="461.5" r="17.5" fill="#EA384D"/>
<circle cx="780.5" cy="535.5" r="17.5" fill="#EA384D"/>
<circle cx="780.5" cy="609.5" r="17.5" fill="#EA384D"/>
<circle cx="780.5" cy="683.5" r="17.5" fill="#EA384D"/>
<circle cx="780.5" cy="757.5" r="17.5" fill="#EA384D"/>
<circle cx="780.5" cy="831.5" r="17.5" fill="#EA384D"/>
<circle cx="780.5" cy="905.5" r="17.5" fill="#EA384D"/>
<circle cx="780.5" cy="979.5" r="17.5" fill="#EA384D"/>
<circle cx="889.5" cy="17.5" r="17.5" fill="#EA384D"/>
<circle cx="889.5" cy="91.5" r="17.5" fill="#EA384D"/>
<circle cx="889.5" cy="165.5" r="17.5" fill="#EA384D"/>
<circle cx="889.5" cy="239.5" r="17.5" fill="#EA384D"/>
<circle cx="889.5" cy="313.5" r="17.5" fill="#EA384D"/>
<circle cx="889.5" cy="387.5" r="17.5" fill="#EA384D"/>
<circle cx="889.5" cy="461.5" r="17.5" fill="#EA384D"/>
<circle cx="889.5" cy="535.5" r="17.5" fill="#EA384D"/>
<circle cx="889.5" cy="609.5" r="17.5" fill="#EA384D"/>
<circle cx="889.5" cy="683.5" r="17.5" fill="#EA384D"/>
<circle cx="889.5" cy="757.5" r="17.5" fill="#EA384D"/>
<circle cx="889.5" cy="831.5" r="17.5" fill="#EA384D"/>
<circle cx="889.5" cy="905.5" r="17.5" fill="#EA384D"/>
<circle cx="889.5" cy="979.5" r="17.5" fill="#EA384D"/>
</svg>
